<?xml version="1.0" encoding="UTF-8"?>
<!-- Svg Vector Icons : http://www.onlinewebfonts.com/icon -->
<!DOCTYPE svg PUBLIC "-//W3C//DTD SVG 1.1//EN" "http://www.w3.org/Graphics/SVG/1.1/DTD/svg11.dtd">
<svg version="1.1" xmlns="http://www.w3.org/2000/svg" xmlns:xlink="http://www.w3.org/1999/xlink" x="0px" y="0px" viewBox="0 0 1000 1000" preserveAspectRatio="none" enable-background="new 0 0 1000 1000" xml:space="preserve">
<metadata> Svg Vector Icons : http://www.onlinewebfonts.com/icon </metadata>
<g><path d="M975.4,932.7h-69.2v-47c0-2.7-2.2-4.9-4.9-4.9c-2.7,0-4.9,2.2-4.9,4.9v47H809v-47c0-2.7-2.2-4.9-4.9-4.9c-2.7,0-4.9,2.2-4.9,4.9v47h-87.5v-47c0-2.7-2.2-4.9-4.9-4.9c-2.7,0-4.9,2.2-4.9,4.9v47h-87.5v-47c0-2.7-2.2-4.9-4.9-4.9c-2.7,0-4.9,2.2-4.9,4.9v47h-87.5v-47c0-2.7-2.2-4.9-4.9-4.9c-2.7,0-4.9,2.2-4.9,4.9v47H420v-47c0-2.7-2.2-4.9-4.9-4.9c-2.7,0-4.9,2.2-4.9,4.9v47h-87.5v-47c0-2.7-2.2-4.9-4.9-4.9c-2.7,0-4.9,2.2-4.9,4.9v47h-87.5v-47c0-2.7-2.2-4.9-4.9-4.9c-2.7,0-4.9,2.2-4.9,4.9v47H39.2V822.5h39c2.7,0,4.9-2.2,4.9-4.9s-2.2-4.9-4.9-4.9h-39v-87.5h39c2.7,0,4.9-2.2,4.9-4.9c0-2.7-2.2-4.9-4.9-4.9h-39V628h39c2.7,0,4.9-2.2,4.9-4.9c0-2.7-2.2-4.9-4.9-4.9h-39v-87.5h39c2.7,0,4.9-2.2,4.9-4.9c0-2.7-2.2-4.9-4.9-4.9h-39v-87.5h39c2.7,0,4.9-2.2,4.9-4.9s-2.2-4.9-4.9-4.9h-39v-87.5h39c2.7,0,4.9-2.2,4.9-4.9s-2.2-4.9-4.9-4.9h-39v-87.5h39c2.7,0,4.9-2.2,4.9-4.9c0-2.7-2.2-4.9-4.9-4.9h-39v-87.5h39c2.7,0,4.9-2.2,4.9-4.9c0-2.7-2.2-4.9-4.9-4.9h-39V52.7c0-8.1-6.5-14.6-14.6-14.6c-8.1,0-14.6,6.5-14.6,14.6v894.6c0,8.1,6.5,14.6,14.6,14.6h950.8c8.1,0,14.6-6.5,14.6-14.6C990,939.2,983.5,932.7,975.4,932.7z"/><path d="M469.7,437.5l134.9,158.2l192.9-250.9v91.2h48.6V232l-177.9,67.6l17.3,45.4l71.5-27.2L602.7,518.5L472.4,365.8L165.8,675l34.5,34.2L469.7,437.5z"/></g>
</svg>